# xmcd
#
# Track frame offsets: 
#        150
#        7926
#        22830
#        29958
#        47103
#        48804
#        68082
#        74184
#        88656
#        96324
#        113415
#        122163
#        122514
#        133800
#        158181
#        174138
#        175218
#        192552
#        194037
#        210831
#        213153
#        223980
#        227787
#        228732
#        246849
#        247902
#        250764
#        251520
#        267558
#        271095
#        283839
#        286944
#        303198
#        304710
#        315969
#        317913
#        331926
#
# Disc length: 4478 seconds
#
# Revision: 0
# Processed by: cddbd v1.5.2PL0 Copyright (c) Steve Scherf et al.
# Submitted via: ExactAudioCopy v0.95b3
#
DISCID=1e117c25
DTITLE=The Beatles  - The Days In Their Life - Vol.15  FLAC
DYEAR=1900
DGENRE=
TTITLE0=Narrative
TTITLE1=Instant Karma! (John Lennon)
TTITLE2=Narrative
TTITLE3=Let It Be (Single Version)
TTITLE4=Narrative
TTITLE5=You Know My Name (Look Up The Number)
TTITLE6=Narrative
TTITLE7=Stardust (Ringo Starr)
TTITLE8=Narrative
TTITLE9=Maybe I'm Amazed (Paul McCartney)
TTITLE10=NarrativeJunk (Paul McCartney)
TTITLE11=Narrative
TTITLE12=Every Night (Paul McCartney)
TTITLE13=Narrative
TTITLE14=Two Of Us
TTITLE15=Narrative
TTITLE16=Dig A Pony
TTITLE17=Narrative
TTITLE18=Across The Universe
TTITLE19=Narrative
TTITLE20=I Me Mine
TTITLE21=NarrativeDig It
TTITLE22=Narrative
TTITLE23=Let It Be (Album Version)
TTITLE24=Narrative
TTITLE25=Maggie Mae
TTITLE26=Narrative
TTITLE27=I've Got A Feeling
TTITLE28=Narrative
TTITLE29=One After 909
TTITLE30=Narrative
TTITLE31=The Long And Winding Road
TTITLE32=Narrative
TTITLE33=For You Blue
TTITLE34=Narrative
TTITLE35=Get Back
TTITLE36=Narrative
EXTD=
EXTT0=
EXTT1=
EXTT2=
EXTT3=
EXTT4=
EXTT5=
EXTT6=
EXTT7=
EXTT8=
EXTT9=
EXTT10=
EXTT11=
EXTT12=
EXTT13=
EXTT14=
EXTT15=
EXTT16=
EXTT17=
EXTT18=
EXTT19=
EXTT20=
EXTT21=
EXTT22=
EXTT23=
EXTT24=
EXTT25=
EXTT26=
EXTT27=
EXTT28=
EXTT29=
EXTT30=
EXTT31=
EXTT32=
EXTT33=
EXTT34=
EXTT35=
EXTT36=
PLAYORDER=
